<svg xmlns="http://www.w3.org/2000/svg" viewBox="0 0 700.33 231.5"><title>empty_state</title><path d="M22.83,307.36l-1.66-4.72c.13-.05,3.39-1.19,9.67-3l1.4,4.8C26.11,306.21,22.86,307.35,22.83,307.36Z" transform="translate(-21.17 -211)" style="fill:#c4c4c4"/><path d="M682.28,414c-5.29-3.85-10.79-7.73-16.35-11.52l2.81-4.13c5.61,3.82,11.16,7.73,16.49,11.61ZM649.22,391.5c-5.55-3.54-11.28-7.08-17-10.5l2.56-4.3c5.78,3.46,11.55,7,17.15,10.59ZM614.87,371c-5.79-3.23-11.71-6.43-17.61-9.51l2.32-4.43c5.93,3.1,11.9,6.32,17.73,9.58ZM579.4,352.47c-6-2.9-12.07-5.76-18.11-8.5l2.06-4.55c6.09,2.75,12.22,5.63,18.24,8.56ZM542.94,336c-6.13-2.56-12.37-5.08-18.56-7.47l1.8-4.66c6.23,2.4,12.52,4.94,18.69,7.52Zm-37.32-14.41c-6.26-2.22-12.64-4.37-18.95-6.41l1.53-4.76c6.36,2.05,12.78,4.22,19.09,6.46ZM467.54,309.3c-6.38-1.86-12.87-3.65-19.28-5.32l1.26-4.84c6.46,1.69,13,3.49,19.42,5.36Zm-416-10-1.18-4.86c6.3-1.53,12.92-3,19.67-4.42l1,4.9C64.34,296.3,57.78,297.77,51.53,299.29Zm377.3-.07c-6.47-1.48-13.05-2.89-19.56-4.19l1-4.91c6.55,1.31,13.18,2.73,19.7,4.23ZM389.6,291.4c-6.55-1.11-13.2-2.14-19.77-3l.7-5c6.61.93,13.31,2,19.91,3.08Zm-298.92-.25-.87-4.93C96.31,285.08,103,284,109.7,283l.73,4.95C103.78,288.93,97.14,290,90.68,291.15ZM350,285.79c-6.61-.78-13.31-1.5-19.91-2.15l.49-5c6.64.65,13.37,1.38,20,2.17Zm-219.72-.52-.6-5c6.59-.8,13.33-1.54,20-2.19l.49,5C143.51,283.73,136.82,284.47,130.26,285.27Zm179.86-3.38c-6.64-.52-13.36-1-20-1.35l.29-5c6.64.38,13.4.83,20.08,1.35Zm-140-.51-.36-5c6.62-.48,13.38-.9,20.09-1.24l.25,5C183.41,280.48,176.69,280.9,170.1,281.38Zm100-1.77c-6.65-.24-13.39-.42-20-.52l.07-5c6.66.1,13.43.28,20.12.52Zm-60-.26-.14-5c6.64-.18,13.41-.3,20.12-.34l0,5C223.43,279.05,216.7,279.17,210.09,279.35Z" transform="translate(-21.17 -211)" style="fill:#c4c4c4"/><path d="M705.93,432.31c-2.48-2-5.08-4.13-7.75-6.23l3.1-3.93c2.69,2.12,5.32,4.24,7.83,6.3Z" transform="translate(-21.17 -211)" style="fill:#c4c4c4"/><polygon points="672.2 222.5 683.38 216.96 687.15 205.07 700.33 231.5 672.2 222.5" style="fill:#c4c4c4"/><path d="M192.29,402.59V384h6.41a15.4,15.4,0,0,1,3.32.27,6.46,6.46,0,0,1,2.73,1.33,7.62,7.62,0,0,1,2.2,3.18,12.43,12.43,0,0,1,.73,4.43,13.08,13.08,0,0,1-.49,3.76,9.62,9.62,0,0,1-1.27,2.71,6.92,6.92,0,0,1-1.7,1.68,6.82,6.82,0,0,1-2.22.94,12.84,12.84,0,0,1-3,.31Zm2.47-2.19h4a10,10,0,0,0,2.89-.34,4.12,4.12,0,0,0,1.67-1,5.84,5.84,0,0,0,1.36-2.35,11.45,11.45,0,0,0,.49-3.59,8.66,8.66,0,0,0-1-4.49,4.85,4.85,0,0,0-2.33-2.1,9.71,9.71,0,0,0-3.18-.38h-3.91Z" transform="translate(-21.17 -211)" style="fill:#666"/><path d="M210.75,402.59V389.11h2.06v2.05a5.64,5.64,0,0,1,1.45-1.9,2.6,2.6,0,0,1,1.47-.45,4.47,4.47,0,0,1,2.35.73l-.79,2.12a3.28,3.28,0,0,0-1.68-.49,2.19,2.19,0,0,0-1.34.45,2.44,2.44,0,0,0-.85,1.25,8.7,8.7,0,0,0-.38,2.67v7Z" transform="translate(-21.17 -211)" style="fill:#666"/><path d="M228.23,400.93a8.55,8.55,0,0,1-2.44,1.53,7.18,7.18,0,0,1-2.52.44,4.9,4.9,0,0,1-3.42-1.09,3.58,3.58,0,0,1-1.19-2.77,3.71,3.71,0,0,1,.45-1.81,3.83,3.83,0,0,1,1.18-1.31,5.64,5.64,0,0,1,1.65-.75,16,16,0,0,1,2-.34A22,22,0,0,0,228,394c0-.31,0-.51,0-.6a2.53,2.53,0,0,0-.65-2,3.86,3.86,0,0,0-2.6-.77,4.07,4.07,0,0,0-2.38.56,3.47,3.47,0,0,0-1.14,2l-2.23-.3a5.44,5.44,0,0,1,1-2.32,4.38,4.38,0,0,1,2-1.36,9.19,9.19,0,0,1,3.06-.47,8.1,8.1,0,0,1,2.8.4,3.72,3.72,0,0,1,1.59,1,3.59,3.59,0,0,1,.71,1.55,12.58,12.58,0,0,1,.11,2.11V397a31.6,31.6,0,0,0,.15,4,5,5,0,0,0,.58,1.61h-2.39A4.75,4.75,0,0,1,228.23,400.93Zm-.19-5.1a16.85,16.85,0,0,1-3.73.86,8.77,8.77,0,0,0-2,.46,2,2,0,0,0-.9.74,2,2,0,0,0-.32,1.09,2,2,0,0,0,.69,1.52,3,3,0,0,0,2,.61,4.62,4.62,0,0,0,2.34-.58,3.57,3.57,0,0,0,1.52-1.58,5.61,5.61,0,0,0,.36-2.28Z" transform="translate(-21.17 -211)" style="fill:#666"/><path d="M233.48,403.71l2.22.33a2.1,2.1,0,0,0,.77,1.5,3.84,3.84,0,0,0,2.33.63,4.13,4.13,0,0,0,2.45-.63,3.13,3.13,0,0,0,1.16-1.78,14.17,14.17,0,0,0,.17-2.93,4.68,4.68,0,0,1-3.73,1.76,5.09,5.09,0,0,1-4.31-2,7.76,7.76,0,0,1-1.52-4.81,8.84,8.84,0,0,1,.7-3.56,5.54,5.54,0,0,1,2-2.52,5.44,5.44,0,0,1,3.12-.89,4.84,4.84,0,0,1,3.94,1.93v-1.63h2.1v11.66a11,11,0,0,1-.64,4.46,4.66,4.66,0,0,1-2,2.07,7,7,0,0,1-3.42.77,6.48,6.48,0,0,1-3.9-1.09A3.65,3.65,0,0,1,233.48,403.71Zm1.89-8.1a5.85,5.85,0,0,0,1,3.87,3.32,3.32,0,0,0,2.64,1.22,3.37,3.37,0,0,0,2.64-1.21,5.65,5.65,0,0,0,1.07-3.8,5.52,5.52,0,0,0-1.1-3.73A3.38,3.38,0,0,0,239,390.7a3.27,3.27,0,0,0-2.58,1.24A5.43,5.43,0,0,0,235.37,395.61Z" transform="translate(-21.17 -211)" style="fill:#666"/><path d="M264.38,400.93a8.59,8.59,0,0,1-2.45,1.53,7.18,7.18,0,0,1-2.52.44,4.85,4.85,0,0,1-3.41-1.09,3.55,3.55,0,0,1-1.19-2.77,3.74,3.74,0,0,1,1.63-3.12,5.47,5.47,0,0,1,1.64-.75,16.35,16.35,0,0,1,2-.34,22,22,0,0,0,4.08-.79c0-.31,0-.51,0-.6a2.53,2.53,0,0,0-.65-2,3.84,3.84,0,0,0-2.6-.77,4.09,4.09,0,0,0-2.38.56,3.52,3.52,0,0,0-1.14,2l-2.23-.3a5.57,5.57,0,0,1,1-2.32,4.43,4.43,0,0,1,2-1.36,9.19,9.19,0,0,1,3.06-.47,8.17,8.17,0,0,1,2.81.4,3.74,3.74,0,0,1,1.58,1,3.47,3.47,0,0,1,.71,1.55,12.27,12.27,0,0,1,.12,2.11V397a34.62,34.62,0,0,0,.14,4,5,5,0,0,0,.58,1.61h-2.39A5,5,0,0,1,264.38,400.93Zm-.19-5.1a17,17,0,0,1-3.74.86,8.91,8.91,0,0,0-2,.46,2,2,0,0,0-.9.74,2,2,0,0,0-.32,1.09,2,2,0,0,0,.69,1.52,3,3,0,0,0,2,.61,4.68,4.68,0,0,0,2.35-.58,3.54,3.54,0,0,0,1.51-1.58,5.58,5.58,0,0,0,.37-2.28Z" transform="translate(-21.17 -211)" style="fill:#666"/><path d="M270,402.59V389.11h2.06V391a4.85,4.85,0,0,1,4.29-2.22,5.5,5.5,0,0,1,2.24.44,3.54,3.54,0,0,1,1.53,1.14,4.52,4.52,0,0,1,.71,1.69,13.61,13.61,0,0,1,.13,2.22v8.29h-2.29v-8.2a6,6,0,0,0-.27-2.08,2.16,2.16,0,0,0-.94-1.11,3.07,3.07,0,0,0-1.6-.41,3.75,3.75,0,0,0-2.52.92c-.7.62-1.06,1.79-1.06,3.52v7.36Z" transform="translate(-21.17 -211)" style="fill:#666"/><path d="M293.25,402.59v-1.7a4.21,4.21,0,0,1-3.77,2,5.31,5.31,0,0,1-3-.89,5.8,5.8,0,0,1-2.09-2.48,8.49,8.49,0,0,1-.75-3.66,9.6,9.6,0,0,1,.68-3.67,5.27,5.27,0,0,1,5-3.39,4.56,4.56,0,0,1,2.18.51,4.45,4.45,0,0,1,1.54,1.34V384h2.28v18.61ZM286,395.87a5.92,5.92,0,0,0,1.09,3.87,3.31,3.31,0,0,0,2.58,1.28,3.26,3.26,0,0,0,2.55-1.22,5.66,5.66,0,0,0,1-3.74,6.38,6.38,0,0,0-1.06-4.07,3.29,3.29,0,0,0-2.63-1.29,3.17,3.17,0,0,0-2.55,1.24A6.17,6.17,0,0,0,286,395.87Z" transform="translate(-21.17 -211)" style="fill:#666"/><path d="M314.93,402.59v-1.7a4.18,4.18,0,0,1-3.77,2,5.28,5.28,0,0,1-3-.89,5.82,5.82,0,0,1-2.1-2.48,8.63,8.63,0,0,1-.74-3.66,9.6,9.6,0,0,1,.67-3.67,5.36,5.36,0,0,1,2-2.52,5.43,5.43,0,0,1,3-.87,4.48,4.48,0,0,1,3.72,1.85V384h2.27v18.61Zm-7.22-6.72a5.86,5.86,0,0,0,1.09,3.87,3.31,3.31,0,0,0,2.58,1.28,3.25,3.25,0,0,0,2.54-1.22,5.66,5.66,0,0,0,1.05-3.74A6.37,6.37,0,0,0,313.9,392a3.29,3.29,0,0,0-2.63-1.29,3.16,3.16,0,0,0-2.54,1.24A6.17,6.17,0,0,0,307.71,395.87Z" transform="translate(-21.17 -211)" style="fill:#666"/><path d="M320.62,402.59V389.11h2.05v2.05a5.64,5.64,0,0,1,1.46-1.9,2.54,2.54,0,0,1,1.46-.45,4.44,4.44,0,0,1,2.35.73l-.78,2.12a3.28,3.28,0,0,0-1.68-.49,2.19,2.19,0,0,0-1.35.45,2.5,2.5,0,0,0-.85,1.25,9,9,0,0,0-.38,2.67v7Z" transform="translate(-21.17 -211)" style="fill:#666"/><path d="M328.45,395.85q0-3.74,2.08-5.54a6.28,6.28,0,0,1,4.24-1.5,6.07,6.07,0,0,1,4.55,1.82,6.94,6.94,0,0,1,1.76,5,9,9,0,0,1-.78,4.1,5.55,5.55,0,0,1-2.27,2.31,6.64,6.64,0,0,1-3.26.83,6.06,6.06,0,0,1-4.57-1.82A7.22,7.22,0,0,1,328.45,395.85Zm2.35,0a5.76,5.76,0,0,0,1.13,3.88,3.76,3.76,0,0,0,5.67,0,5.86,5.86,0,0,0,1.13-4A5.61,5.61,0,0,0,337.6,392a3.77,3.77,0,0,0-5.67,0A5.75,5.75,0,0,0,330.8,395.85Z" transform="translate(-21.17 -211)" style="fill:#666"/><path d="M343.76,407.76V389.11h2.08v1.75a5.14,5.14,0,0,1,1.67-1.54,4.55,4.55,0,0,1,2.24-.51,5.28,5.28,0,0,1,3.05.89,5.42,5.42,0,0,1,2,2.5,9.17,9.17,0,0,1,.68,3.55,9,9,0,0,1-.75,3.73,5.61,5.61,0,0,1-2.15,2.54,5.55,5.55,0,0,1-3,.88,4.31,4.31,0,0,1-2-.48,4.61,4.61,0,0,1-1.49-1.22v6.56Zm2.07-11.83a5.9,5.9,0,0,0,1.05,3.85,3.25,3.25,0,0,0,2.56,1.24,3.29,3.29,0,0,0,2.6-1.29,6.07,6.07,0,0,0,1.09-4,5.93,5.93,0,0,0-1.06-3.86,3.18,3.18,0,0,0-2.53-1.28A3.29,3.29,0,0,0,347,392,6.16,6.16,0,0,0,345.83,395.93Z" transform="translate(-21.17 -211)" style="fill:#666"/><path d="M374.24,400.93a8.55,8.55,0,0,1-2.44,1.53,7.18,7.18,0,0,1-2.52.44,4.9,4.9,0,0,1-3.42-1.09,3.58,3.58,0,0,1-1.19-2.77,3.74,3.74,0,0,1,1.63-3.12,5.64,5.64,0,0,1,1.65-.75,15.7,15.7,0,0,1,2-.34,22,22,0,0,0,4.07-.79c0-.31,0-.51,0-.6a2.53,2.53,0,0,0-.64-2,3.87,3.87,0,0,0-2.61-.77,4.12,4.12,0,0,0-2.38.56,3.46,3.46,0,0,0-1.13,2l-2.24-.3a5.57,5.57,0,0,1,1-2.32,4.38,4.38,0,0,1,2-1.36,9.19,9.19,0,0,1,3.06-.47,8.1,8.1,0,0,1,2.8.4,3.72,3.72,0,0,1,1.59,1,3.59,3.59,0,0,1,.71,1.55,13.8,13.8,0,0,1,.11,2.11V397a31.6,31.6,0,0,0,.15,4,5,5,0,0,0,.58,1.61H374.7A4.75,4.75,0,0,1,374.24,400.93Zm-.19-5.1a16.85,16.85,0,0,1-3.73.86,8.77,8.77,0,0,0-2,.46,2,2,0,0,0-.9.74,1.91,1.91,0,0,0-.32,1.09,2,2,0,0,0,.69,1.52,3,3,0,0,0,2,.61,4.63,4.63,0,0,0,2.35-.58,3.49,3.49,0,0,0,1.51-1.58,5.42,5.42,0,0,0,.37-2.28Z" transform="translate(-21.17 -211)" style="fill:#666"/><path d="M379.9,407.76V389.11H382v1.75a5.11,5.11,0,0,1,1.66-1.54,4.62,4.62,0,0,1,2.25-.51,5.25,5.25,0,0,1,3,.89,5.44,5.44,0,0,1,2,2.5,9.76,9.76,0,0,1-.07,7.28,5.69,5.69,0,0,1-2.16,2.54,5.53,5.53,0,0,1-3,.88,4.34,4.34,0,0,1-2.05-.48,4.72,4.72,0,0,1-1.49-1.22v6.56ZM382,395.93a5.9,5.9,0,0,0,1.06,3.85,3.22,3.22,0,0,0,2.55,1.24,3.31,3.31,0,0,0,2.61-1.29,6.13,6.13,0,0,0,1.08-4,5.93,5.93,0,0,0-1.06-3.86,3.16,3.16,0,0,0-2.53-1.28A3.28,3.28,0,0,0,383.1,392,6.1,6.1,0,0,0,382,395.93Z" transform="translate(-21.17 -211)" style="fill:#666"/><path d="M394.36,407.76V389.11h2.09v1.75a5.11,5.11,0,0,1,1.66-1.54,4.62,4.62,0,0,1,2.25-.51,5.25,5.25,0,0,1,3,.89,5.44,5.44,0,0,1,2,2.5,9.76,9.76,0,0,1-.07,7.28,5.69,5.69,0,0,1-2.16,2.54,5.53,5.53,0,0,1-3,.88,4.34,4.34,0,0,1-2.05-.48,4.72,4.72,0,0,1-1.49-1.22v6.56Zm2.07-11.83a5.9,5.9,0,0,0,1.06,3.85A3.22,3.22,0,0,0,400,401a3.31,3.31,0,0,0,2.61-1.29,6.13,6.13,0,0,0,1.08-4,5.93,5.93,0,0,0-1.06-3.86,3.16,3.16,0,0,0-2.53-1.28,3.28,3.28,0,0,0-2.58,1.36A6.1,6.1,0,0,0,396.43,395.93Z" transform="translate(-21.17 -211)" style="fill:#666"/><path d="M407.91,398.57l2.26-.36a3.2,3.2,0,0,0,1.06,2.09,3.71,3.71,0,0,0,2.43.72,3.57,3.57,0,0,0,2.34-.64,1.91,1.91,0,0,0,.76-1.5,1.37,1.37,0,0,0-.67-1.22,9.6,9.6,0,0,0-2.34-.78,20.39,20.39,0,0,1-3.48-1.1,3.31,3.31,0,0,1-2-3.09,3.56,3.56,0,0,1,.41-1.67,3.72,3.72,0,0,1,1.13-1.27,4.46,4.46,0,0,1,1.45-.67,7,7,0,0,1,2-.27,7.91,7.91,0,0,1,2.78.45,3.83,3.83,0,0,1,1.77,1.24,4.81,4.81,0,0,1,.79,2.09l-2.23.31a2.47,2.47,0,0,0-.89-1.63,3.2,3.2,0,0,0-2.06-.58,3.73,3.73,0,0,0-2.25.52,1.49,1.49,0,0,0-.67,1.22,1.26,1.26,0,0,0,.28.8,2.07,2.07,0,0,0,.88.6c.22.09.9.28,2,.59a27,27,0,0,1,3.39,1.06,3.32,3.32,0,0,1,1.5,1.2,3.28,3.28,0,0,1,.55,1.95,3.82,3.82,0,0,1-.67,2.16,4.29,4.29,0,0,1-1.92,1.56,7,7,0,0,1-2.85.55,6.31,6.31,0,0,1-4-1.09A5.07,5.07,0,0,1,407.91,398.57Z" transform="translate(-21.17 -211)" style="fill:#666"/><path d="M429.59,402.59v-11.7h-2v-1.78h2v-1.43a6,6,0,0,1,.25-2,2.9,2.9,0,0,1,1.16-1.44,4.16,4.16,0,0,1,2.33-.55,11.33,11.33,0,0,1,2.13.22l-.34,2a7.32,7.32,0,0,0-1.35-.13,2,2,0,0,0-1.47.45,2.38,2.38,0,0,0-.43,1.66v1.24h2.62v1.78h-2.62v11.7Z" transform="translate(-21.17 -211)" style="fill:#666"/><path d="M436.25,402.59V389.11h2.05v2.05a5.64,5.64,0,0,1,1.46-1.9,2.54,2.54,0,0,1,1.46-.45,4.44,4.44,0,0,1,2.35.73l-.79,2.12a3.22,3.22,0,0,0-1.67-.49,2.19,2.19,0,0,0-1.35.45,2.5,2.5,0,0,0-.85,1.25,9,9,0,0,0-.38,2.67v7Z" transform="translate(-21.17 -211)" style="fill:#666"/><path d="M444.08,395.85q0-3.74,2.08-5.54a6.26,6.26,0,0,1,4.24-1.5,6.07,6.07,0,0,1,4.55,1.82,6.94,6.94,0,0,1,1.76,5,9,9,0,0,1-.78,4.1,5.55,5.55,0,0,1-2.27,2.31,6.64,6.64,0,0,1-3.26.83,6,6,0,0,1-4.57-1.82A7.22,7.22,0,0,1,444.08,395.85Zm2.35,0a5.71,5.71,0,0,0,1.13,3.88,3.76,3.76,0,0,0,5.67,0,5.86,5.86,0,0,0,1.13-4,5.61,5.61,0,0,0-1.13-3.79,3.77,3.77,0,0,0-5.67,0A5.7,5.7,0,0,0,446.43,395.85Z" transform="translate(-21.17 -211)" style="fill:#666"/><path d="M459.39,402.59V389.11h2V391a4.86,4.86,0,0,1,1.69-1.59,4.78,4.78,0,0,1,2.4-.6,4.49,4.49,0,0,1,2.46.62,3.27,3.27,0,0,1,1.35,1.74,4.84,4.84,0,0,1,4.16-2.36,4.11,4.11,0,0,1,3.09,1.11,4.74,4.74,0,0,1,1.08,3.42v9.25h-2.27V394.1a6.13,6.13,0,0,0-.23-2,1.84,1.84,0,0,0-.8-1,2.49,2.49,0,0,0-1.37-.37,3.17,3.17,0,0,0-2.36.94,4.15,4.15,0,0,0-.94,3v7.83H467.4v-8.76a3.87,3.87,0,0,0-.56-2.28,2.11,2.11,0,0,0-1.83-.76,3.32,3.32,0,0,0-1.78.51,2.85,2.85,0,0,0-1.19,1.48,8.53,8.53,0,0,0-.36,2.82v7Z" transform="translate(-21.17 -211)" style="fill:#666"/><path d="M493.26,400.55l.33,2a8.84,8.84,0,0,1-1.73.2,3.9,3.9,0,0,1-1.92-.39,2.21,2.21,0,0,1-1-1,8,8,0,0,1-.28-2.69v-7.76H487v-1.78h1.67v-3.34L491,384.4v4.71h2.3v1.78H491v7.88a4,4,0,0,0,.12,1.26,1,1,0,0,0,.4.44,1.5,1.5,0,0,0,.78.17A7.3,7.3,0,0,0,493.26,400.55Z" transform="translate(-21.17 -211)" style="fill:#666"/><path d="M495.5,402.59V384h2.28v6.68a5.12,5.12,0,0,1,4-1.85,5.37,5.37,0,0,1,2.6.59A3.46,3.46,0,0,1,506,391a7.45,7.45,0,0,1,.48,3v8.54h-2.29v-8.54a3.55,3.55,0,0,0-.74-2.49,2.78,2.78,0,0,0-2.1-.78,3.68,3.68,0,0,0-1.91.52,3,3,0,0,0-1.28,1.43,6.64,6.64,0,0,0-.38,2.49v7.37Z" transform="translate(-21.17 -211)" style="fill:#666"/><path d="M519.19,398.25l2.36.29a5.85,5.85,0,0,1-2.07,3.22,6.25,6.25,0,0,1-3.86,1.14,6.18,6.18,0,0,1-4.69-1.82,7.11,7.11,0,0,1-1.74-5.11,7.43,7.43,0,0,1,1.76-5.28,5.89,5.89,0,0,1,4.54-1.88,5.76,5.76,0,0,1,4.42,1.84,7.32,7.32,0,0,1,1.71,5.18c0,.13,0,.34,0,.61H511.56a5.17,5.17,0,0,0,1.25,3.4,3.74,3.74,0,0,0,2.82,1.18,3.52,3.52,0,0,0,2.15-.66A4.4,4.4,0,0,0,519.19,398.25Zm-7.51-3.69h7.53a4.54,4.54,0,0,0-.86-2.55,3.5,3.5,0,0,0-2.83-1.32,3.63,3.63,0,0,0-2.65,1.05A4.16,4.16,0,0,0,511.68,394.56Z" transform="translate(-21.17 -211)" style="fill:#666"/><path d="M237.33,429.77l2.26-.35a3.2,3.2,0,0,0,1.06,2.08,3.71,3.71,0,0,0,2.43.72,3.57,3.57,0,0,0,2.34-.64,1.94,1.94,0,0,0,.76-1.5,1.39,1.39,0,0,0-.67-1.22,10.08,10.08,0,0,0-2.34-.78,20.39,20.39,0,0,1-3.48-1.1,3.31,3.31,0,0,1-2-3.09,3.56,3.56,0,0,1,.41-1.67,3.72,3.72,0,0,1,1.13-1.27,4.67,4.67,0,0,1,1.45-.67,7,7,0,0,1,2-.27,7.93,7.93,0,0,1,2.79.45,3.83,3.83,0,0,1,1.77,1.24,4.81,4.81,0,0,1,.79,2.09l-2.23.31a2.47,2.47,0,0,0-.89-1.63,3.2,3.2,0,0,0-2.06-.58,3.73,3.73,0,0,0-2.25.52,1.49,1.49,0,0,0-.67,1.22,1.26,1.26,0,0,0,.28.8,2.17,2.17,0,0,0,.88.61c.22.08.9.27,2,.58a27,27,0,0,1,3.39,1.06,3.23,3.23,0,0,1,2.05,3.15,3.82,3.82,0,0,1-.67,2.16,4.29,4.29,0,0,1-1.92,1.56,7,7,0,0,1-2.85.55,6.31,6.31,0,0,1-4-1.09A5.07,5.07,0,0,1,237.33,429.77Z" transform="translate(-21.17 -211)" style="fill:#666"/><path d="M251.26,417.81v-2.63h2.28v2.63Zm0,16V420.31h2.28v13.48Z" transform="translate(-21.17 -211)" style="fill:#666"/><path d="M265.77,433.79v-1.7a4.19,4.19,0,0,1-3.77,2,5.31,5.31,0,0,1-3-.89,5.8,5.8,0,0,1-2.09-2.48,8.49,8.49,0,0,1-.74-3.66,9.6,9.6,0,0,1,.67-3.67,5.27,5.27,0,0,1,5-3.39,4.48,4.48,0,0,1,3.72,1.85v-6.68h2.27v18.61Zm-7.23-6.72a5.86,5.86,0,0,0,1.1,3.87,3.25,3.25,0,0,0,5.12.06,5.66,5.66,0,0,0,1.05-3.74,6.37,6.37,0,0,0-1.07-4.07,3.29,3.29,0,0,0-2.63-1.29,3.16,3.16,0,0,0-2.54,1.24A6.1,6.1,0,0,0,258.54,427.07Z" transform="translate(-21.17 -211)" style="fill:#666"/><path d="M280.71,429.45l2.36.3A5.76,5.76,0,0,1,281,433a7,7,0,0,1-8.55-.68,7.15,7.15,0,0,1-1.73-5.11,7.43,7.43,0,0,1,1.75-5.28A5.91,5.91,0,0,1,277,420a5.74,5.74,0,0,1,4.41,1.84,7.28,7.28,0,0,1,1.72,5.18c0,.13,0,.34,0,.61H273.08a5.13,5.13,0,0,0,1.26,3.4,3.72,3.72,0,0,0,2.82,1.18,3.49,3.49,0,0,0,2.14-.66A4.4,4.4,0,0,0,280.71,429.45Zm-7.5-3.69h7.53a4.54,4.54,0,0,0-.87-2.55,3.5,3.5,0,0,0-2.83-1.32,3.65,3.65,0,0,0-2.65,1.05A4.15,4.15,0,0,0,273.21,425.76Z" transform="translate(-21.17 -211)" style="fill:#666"/><path d="M288.05,433.79h-2.12V415.18h2.28v6.64a4.53,4.53,0,0,1,3.7-1.81,5.54,5.54,0,0,1,2.35.5,4.75,4.75,0,0,1,1.83,1.41,6.65,6.65,0,0,1,1.12,2.19,9,9,0,0,1,.41,2.74,7.72,7.72,0,0,1-1.71,5.36,5.39,5.39,0,0,1-4.12,1.89,4.27,4.27,0,0,1-3.74-2Zm0-6.84a7,7,0,0,0,.66,3.51,3.27,3.27,0,0,0,5.51.46,5.91,5.91,0,0,0,1.09-3.88,6,6,0,0,0-1-3.9,3.22,3.22,0,0,0-2.54-1.25,3.29,3.29,0,0,0-2.59,1.3A5.75,5.75,0,0,0,288,427Z" transform="translate(-21.17 -211)" style="fill:#666"/><path d="M309.2,432.13a8.59,8.59,0,0,1-2.45,1.53,7.18,7.18,0,0,1-2.52.44,4.85,4.85,0,0,1-3.41-1.09,3.55,3.55,0,0,1-1.19-2.77,3.74,3.74,0,0,1,1.63-3.12,5.47,5.47,0,0,1,1.64-.75,16.35,16.35,0,0,1,2-.34,21.16,21.16,0,0,0,4.08-.79c0-.31,0-.51,0-.6a2.53,2.53,0,0,0-.65-2,3.84,3.84,0,0,0-2.6-.77,4.09,4.09,0,0,0-2.38.56,3.52,3.52,0,0,0-1.14,2l-2.23-.3a5.57,5.57,0,0,1,1-2.32,4.43,4.43,0,0,1,2-1.36,9.19,9.19,0,0,1,3.06-.47,8.17,8.17,0,0,1,2.81.4,3.77,3.77,0,0,1,1.58,1,3.47,3.47,0,0,1,.71,1.55,12.27,12.27,0,0,1,.12,2.11v3a34.62,34.62,0,0,0,.14,4,5,5,0,0,0,.58,1.61h-2.38A4.75,4.75,0,0,1,309.2,432.13ZM309,427a17,17,0,0,1-3.73.86,8.89,8.89,0,0,0-2,.46,2,2,0,0,0-.9.74,2,2,0,0,0-.32,1.09,1.92,1.92,0,0,0,.7,1.52,2.94,2.94,0,0,0,2,.61,4.68,4.68,0,0,0,2.35-.58,3.54,3.54,0,0,0,1.51-1.58,5.42,5.42,0,0,0,.37-2.28Z" transform="translate(-21.17 -211)" style="fill:#666"/><path d="M314.83,433.79V420.31h2.06v2.05a5.64,5.64,0,0,1,1.46-1.9,2.54,2.54,0,0,1,1.46-.45,4.47,4.47,0,0,1,2.35.73l-.79,2.12a3.24,3.24,0,0,0-1.67-.49,2.19,2.19,0,0,0-1.35.45,2.44,2.44,0,0,0-.85,1.25,9,9,0,0,0-.38,2.67v7.05Z" transform="translate(-21.17 -211)" style="fill:#666"/><path d="M335.73,431.75l.33,2a8.84,8.84,0,0,1-1.73.2,3.9,3.9,0,0,1-1.92-.39,2.21,2.21,0,0,1-1-1,8,8,0,0,1-.28-2.69v-7.76h-1.67v-1.78h1.67V417l2.27-1.37v4.71h2.3v1.78h-2.3V430a4,4,0,0,0,.12,1.26,1,1,0,0,0,.4.44,1.5,1.5,0,0,0,.78.17A7.3,7.3,0,0,0,335.73,431.75Z" transform="translate(-21.17 -211)" style="fill:#666"/><path d="M337.12,427.05q0-3.74,2.08-5.54a6.26,6.26,0,0,1,4.24-1.5,6,6,0,0,1,4.54,1.82,6.9,6.9,0,0,1,1.77,5A9,9,0,0,1,349,431a5.52,5.52,0,0,1-2.28,2.31,6.6,6.6,0,0,1-3.25.83,6.06,6.06,0,0,1-4.58-1.82A7.26,7.26,0,0,1,337.12,427.05Zm2.34,0a5.76,5.76,0,0,0,1.13,3.88,3.77,3.77,0,0,0,5.68,0A5.91,5.91,0,0,0,347.4,427a5.56,5.56,0,0,0-1.14-3.79,3.61,3.61,0,0,0-2.82-1.29,3.65,3.65,0,0,0-2.85,1.28A5.75,5.75,0,0,0,339.46,427.05Z" transform="translate(-21.17 -211)" style="fill:#666"/><path d="M364.64,431.75l.33,2a8.84,8.84,0,0,1-1.73.2,4,4,0,0,1-1.93-.39,2.19,2.19,0,0,1-1-1,8,8,0,0,1-.28-2.69v-7.76h-1.68v-1.78h1.68V417l2.27-1.37v4.71h2.3v1.78h-2.3V430a4,4,0,0,0,.12,1.26.92.92,0,0,0,.39.44,1.57,1.57,0,0,0,.79.17A7.43,7.43,0,0,0,364.64,431.75Z" transform="translate(-21.17 -211)" style="fill:#666"/><path d="M366.87,433.79V415.18h2.29v6.68a5.11,5.11,0,0,1,4-1.85,5.39,5.39,0,0,1,2.6.59,3.51,3.51,0,0,1,1.58,1.63,7.47,7.47,0,0,1,.47,3v8.54h-2.28v-8.54a3.55,3.55,0,0,0-.74-2.49,2.78,2.78,0,0,0-2.1-.78,3.74,3.74,0,0,0-1.92.52,3,3,0,0,0-1.27,1.43,6.64,6.64,0,0,0-.38,2.49v7.37Z" transform="translate(-21.17 -211)" style="fill:#666"/><path d="M390.56,429.45l2.36.3a5.76,5.76,0,0,1-2.07,3.21,7,7,0,0,1-8.55-.68,7.15,7.15,0,0,1-1.73-5.11,7.47,7.47,0,0,1,1.75-5.28,5.92,5.92,0,0,1,4.55-1.88,5.77,5.77,0,0,1,4.42,1.84A7.32,7.32,0,0,1,393,427c0,.13,0,.34,0,.61H382.93a5.23,5.23,0,0,0,1.26,3.4,3.72,3.72,0,0,0,2.82,1.18,3.47,3.47,0,0,0,2.14-.66A4.27,4.27,0,0,0,390.56,429.45Zm-7.5-3.69h7.53a4.47,4.47,0,0,0-.87-2.55,3.49,3.49,0,0,0-2.83-1.32,3.61,3.61,0,0,0-2.64,1.05A4.16,4.16,0,0,0,383.06,425.76Z" transform="translate(-21.17 -211)" style="fill:#666"/><path d="M411.81,428.86l2.25.29a5.82,5.82,0,0,1-1.88,3.64,5.53,5.53,0,0,1-3.73,1.31,5.77,5.77,0,0,1-4.45-1.81,7.35,7.35,0,0,1-1.68-5.19,9.47,9.47,0,0,1,.72-3.82,5,5,0,0,1,2.2-2.45,6.51,6.51,0,0,1,3.22-.82,5.62,5.62,0,0,1,3.6,1.11,5.13,5.13,0,0,1,1.79,3.15l-2.23.35a3.67,3.67,0,0,0-1.12-2.05,3,3,0,0,0-1.95-.68,3.55,3.55,0,0,0-2.8,1.23,5.9,5.9,0,0,0-1.08,3.92,6,6,0,0,0,1,3.95,3.38,3.38,0,0,0,2.71,1.23,3.2,3.2,0,0,0,2.25-.82A4.1,4.1,0,0,0,411.81,428.86Z" transform="translate(-21.17 -211)" style="fill:#666"/><path d="M424.81,432.13a8.55,8.55,0,0,1-2.44,1.53,7.18,7.18,0,0,1-2.52.44,4.85,4.85,0,0,1-3.41-1.09,3.55,3.55,0,0,1-1.2-2.77,3.71,3.71,0,0,1,.45-1.81,3.83,3.83,0,0,1,1.18-1.31,5.64,5.64,0,0,1,1.65-.75,16,16,0,0,1,2-.34,21.18,21.18,0,0,0,4.07-.79c0-.31,0-.51,0-.6a2.53,2.53,0,0,0-.65-2,3.84,3.84,0,0,0-2.6-.77,4.07,4.07,0,0,0-2.38.56,3.47,3.47,0,0,0-1.14,2l-2.23-.3a5.44,5.44,0,0,1,1-2.32,4.38,4.38,0,0,1,2-1.36,9.19,9.19,0,0,1,3.06-.47,8.1,8.1,0,0,1,2.8.4,3.81,3.81,0,0,1,1.59,1,3.47,3.47,0,0,1,.71,1.55,12.58,12.58,0,0,1,.11,2.11v3a31.6,31.6,0,0,0,.15,4,5,5,0,0,0,.58,1.61h-2.39A4.75,4.75,0,0,1,424.81,432.13Zm-.19-5.1a16.85,16.85,0,0,1-3.73.86,8.77,8.77,0,0,0-2,.46,2,2,0,0,0-.9.74,2,2,0,0,0-.32,1.09,2,2,0,0,0,.69,1.52,3,3,0,0,0,2,.61,4.68,4.68,0,0,0,2.35-.58,3.6,3.6,0,0,0,1.51-1.58,5.61,5.61,0,0,0,.36-2.28Z" transform="translate(-21.17 -211)" style="fill:#666"/><path d="M430.48,433.79V420.31h2v1.92a4.85,4.85,0,0,1,4.29-2.22,5.46,5.46,0,0,1,2.24.44,3.43,3.43,0,0,1,1.53,1.14,4.53,4.53,0,0,1,.72,1.69,13.93,13.93,0,0,1,.12,2.22v8.29h-2.28v-8.2a6,6,0,0,0-.27-2.08,2.21,2.21,0,0,0-.94-1.11,3.1,3.1,0,0,0-1.6-.41,3.71,3.71,0,0,0-2.52.93c-.7.61-1.06,1.79-1.06,3.51v7.36Z" transform="translate(-21.17 -211)" style="fill:#666"/><path d="M448.68,433.79l-5.13-13.48H446l2.9,8.08c.31.87.6,1.77.86,2.71.21-.71.49-1.56.85-2.56l3-8.23h2.35l-5.11,13.48Z" transform="translate(-21.17 -211)" style="fill:#666"/><path d="M466.73,432.13a8.55,8.55,0,0,1-2.44,1.53,7.18,7.18,0,0,1-2.52.44,4.85,4.85,0,0,1-3.41-1.09,3.55,3.55,0,0,1-1.2-2.77,3.71,3.71,0,0,1,.45-1.81,3.83,3.83,0,0,1,1.18-1.31,5.64,5.64,0,0,1,1.65-.75,16,16,0,0,1,2-.34,21.18,21.18,0,0,0,4.07-.79c0-.31,0-.51,0-.6a2.53,2.53,0,0,0-.65-2,3.84,3.84,0,0,0-2.6-.77,4.07,4.07,0,0,0-2.38.56,3.47,3.47,0,0,0-1.14,2l-2.23-.3a5.44,5.44,0,0,1,1-2.32,4.38,4.38,0,0,1,2-1.36,9.19,9.19,0,0,1,3.06-.47,8.1,8.1,0,0,1,2.8.4,3.81,3.81,0,0,1,1.59,1,3.59,3.59,0,0,1,.71,1.55,12.58,12.58,0,0,1,.11,2.11v3a31.6,31.6,0,0,0,.15,4,5,5,0,0,0,.58,1.61h-2.39A4.75,4.75,0,0,1,466.73,432.13Zm-.19-5.1a16.85,16.85,0,0,1-3.73.86,8.77,8.77,0,0,0-2,.46,2,2,0,0,0-.9.74,2,2,0,0,0-.32,1.09,2,2,0,0,0,.69,1.52,3,3,0,0,0,2,.61,4.68,4.68,0,0,0,2.35-.58,3.6,3.6,0,0,0,1.51-1.58,5.61,5.61,0,0,0,.36-2.28Z" transform="translate(-21.17 -211)" style="fill:#666"/><path d="M471.48,429.77l2.26-.35a3.2,3.2,0,0,0,1.06,2.08,3.71,3.71,0,0,0,2.43.72,3.57,3.57,0,0,0,2.34-.64,1.91,1.91,0,0,0,.76-1.5,1.37,1.37,0,0,0-.67-1.22,9.72,9.72,0,0,0-2.34-.78,20.7,20.7,0,0,1-3.48-1.1,3.31,3.31,0,0,1-2-3.09,3.45,3.45,0,0,1,.42-1.67A3.69,3.69,0,0,1,473.4,421a4.67,4.67,0,0,1,1.45-.67,7,7,0,0,1,2-.27,7.87,7.87,0,0,1,2.78.45,3.83,3.83,0,0,1,1.77,1.24,4.69,4.69,0,0,1,.79,2.09l-2.23.31a2.46,2.46,0,0,0-.88-1.63,3.25,3.25,0,0,0-2.07-.58,3.67,3.67,0,0,0-2.24.52,1.51,1.51,0,0,0-.68,1.22,1.32,1.32,0,0,0,.28.8,2.17,2.17,0,0,0,.88.61c.23.08.9.27,2,.58a27.26,27.26,0,0,1,3.38,1.06,3.23,3.23,0,0,1,2.05,3.15A3.82,3.82,0,0,1,482,432a4.29,4.29,0,0,1-1.92,1.56,7,7,0,0,1-2.84.55,6.32,6.32,0,0,1-4-1.09A5.11,5.11,0,0,1,471.48,429.77Z" transform="translate(-21.17 -211)" style="fill:#666"/><circle cx="338.83" cy="74" r="69" style="fill:#303030"/><circle cx="338.83" cy="74" r="51.42" style="fill:#5e8eb8"/><path d="M360,359a74,74,0,1,1,74-74h0A74.09,74.09,0,0,1,360,359Zm0-140.47A66.47,66.47,0,1,0,426.47,285,66.47,66.47,0,0,0,360,218.53Z" transform="translate(-21.17 -211)" style="fill:#c4c4c4"/><rect x="342.38" y="94.85" width="22.53" height="5.22" style="fill:#303030"/><rect x="346.19" y="255.37" width="5.22" height="36.85" transform="translate(-112.61 115.83) rotate(-45)" style="fill:#303030"/><rect x="330.37" y="293.6" width="36.86" height="5.22" transform="translate(-128.46 122.4) rotate(-45)" style="fill:#303030"/></svg>